Coordinates
version=1
nRows=13
nColumns=34
inDegrees=yes

Units are S.I. units (second, meters, Newtons, ...)
If the header above contains a line with 'inDegrees', this indicates whether rotational values are in degrees (yes) or radians (no).

endheader
time	pelvis_tilt	pelvis_list	pelvis_rotation	pelvis_tx	pelvis_ty	pelvis_tz	hip_flexion_r	hip_adduction_r	hip_rotation_r	knee_angle_r	ankle_angle_r	subtalar_angle_r	mtp_angle_r	hip_flexion_l	hip_adduction_l	hip_rotation_l	knee_angle_l	ankle_angle_l	subtalar_angle_l	mtp_angle_l	lumbar_extension	lumbar_bending	lumbar_rotation	arm_flex_r	arm_add_r	arm_rot_r	elbow_flex_r	pro_sup_r	arm_flex_l	arm_add_l	arm_rot_l	elbow_flex_l	pro_sup_l
      4.61666670	     -7.98112364	      0.76792136	      1.04604121	      0.95701043	      0.99763364	     -0.10200646	     15.41363861	    -12.25718492	     -6.46549235	      7.79167682	    -29.75178644	     -2.87629855	      0.00000000	     18.25822449	     -8.11713376	     -8.80747692	      9.54840148	    -18.39966892	      4.21021137	      0.00000000	     -9.75260032	      1.19141755	      8.23689511	     66.76263493	     -5.85947085	     53.29563498	     49.31285187	     86.18827503	     44.68830849	    -16.01498965	     26.44888253	     77.53147957	     80.31692385
      4.63333330	     -8.09792618	      0.60056134	      1.61600703	      0.95363493	      0.95975989	     -0.10369677	     17.46685500	    -12.73835258	     -6.03382763	     11.49935011	    -27.75834684	     -3.19956181	      0.00000000	     20.65227225	     -8.36441288	     -9.00834710	     14.01567466	    -16.53190906	      4.75229625	      0.00000000	    -10.30412325	      1.71832288	      8.48697855	     72.00967766	     -6.22108342	     54.70885298	     55.42023795	     85.98813146	     49.05893042	    -15.24858794	     26.17556724	     81.61865820	     79.89512173
      4.65000000	     -7.84122960	      0.24123896	      2.13694872	      0.95226661	      0.93003063	     -0.10433631	     19.75034136	    -12.96412120	     -5.44986013	     17.51016667	    -21.22624989	     -5.10462437	      0.00000000	     22.67695253	     -8.98518118	     -9.42629659	     19.31444105	    -10.22369821	      5.30341055	      0.00000000	    -11.65515561	      2.35888683	      8.79576825	     76.31768767	     -6.81530854	     54.62557291	     62.56556655	     85.63287540	     52.83651651	    -14.23195929	     24.98213986	     85.40346174	     79.03194685
      4.66666670	     -7.89467667	      0.31837732	      2.37069033	      0.95158532	      0.89558782	     -0.10258346	     23.44550469	    -13.58019800	     -5.31215489	     25.46500489	    -11.03305341	     -8.10553654	      0.00000000	     25.60650348	     -9.75385608	    -11.10863775	     26.12956363	     -1.41617061	      5.25124598	      0.00000000	    -12.63137628	      2.33098611	      8.63161842	     80.26629684	     -6.18476995	     53.25661244	     67.74212583	     85.59568377	     57.01437921	    -14.04132947	     24.11665621	     89.00321603	     78.64833414
      4.68333330	     -7.71842214	      0.46767175	      2.68325554	      0.94487543	      0.86318581	     -0.10046026	     27.88054800	    -14.38179522	     -4.54653083	     34.74769131	      0.73011138	     -9.79532898	      0.00000000	     29.74979229	    -10.90477037	    -12.48939706	     34.67912470	      7.46784974	      3.87802122	      0.00000000	    -14.35275462	      2.05786886	      8.38263919	     84.32411513	     -5.62191295	     51.17243111	     72.95859901	     85.70845272	     61.39415466	    -14.31046242	     23.51439008	     92.13053700	     78.33585681
      4.70000000	     -7.83659324	      0.33414358	      2.40087685	      0.93725917	      0.82875320	     -0.09777246	     34.38368259	    -14.96973268	     -3.54283193	     46.10555197	     11.56807940	    -10.09399832	      0.00000000	     36.10973069	    -13.11280723	    -12.45283390	     45.89933752	     15.61340147	      1.94720401	      0.00000000	    -16.38365006	      1.77088942	      8.46640802	     89.20516561	     -4.51020853	     48.83094969	     77.39322414	     85.96260405	     66.50712379	    -14.89618091	     22.28428680	     95.90454226	     78.03599900
      4.71666670	     -7.77878495	     -0.08122684	      1.70550623	      0.93336983	      0.80138076	     -0.09431308	     40.61506975	    -15.21805294	     -2.58654435	     56.93428128	     20.35606097	     -8.90280897	      0.00000000	     42.36525749	    -15.82277537	    -11.38293058	     56.84351250	     22.24128440	      1.25749576	      0.00000000	    -18.45113498	      1.60692569	      8.83805864	     93.08201799	     -3.74335924	     46.29837351	     80.46283778	     86.18259447	     70.62033622	    -15.75247244	     20.45791196	     99.46965580	     77.90372827
      4.73333330	     -7.81182941	     -0.33561234	      1.13499459	      0.92915571	      0.77925159	     -0.09333408	     45.90824906	    -15.83810965	     -2.15459226	     65.66954495	     27.06108815	     -6.04217582	      0.00000000	     48.01684162	    -17.84815846	     -9.79372719	     66.11787647	     26.87526693	      1.17415575	      0.00000000	    -20.61316988	      1.25656973	      8.46310873	     95.53009899	     -2.42073131	     43.11288966	     84.67266220	     86.55524334	     73.50905618	    -16.81681626	     18.03462338	    104.10520816	     77.88794946
      4.75000000	     -7.69544169	     -0.39902736	      0.74115851	      0.92342287	      0.76269929	     -0.09296074	     49.65836780	    -16.67750863	     -1.95129623	     71.71690261	     31.17544285	     -2.84985427	      0.00000000	     52.00543824	    -19.33200331	     -8.64095650	     72.60279464	     29.66156362	      1.78809796	      0.00000000	    -22.98891655	      0.84580123	      7.62488638	     96.41226398	     -1.27106844	     39.90987332	     88.84856649	     87.36485582	     75.42041332	    -17.90241670	     15.66092645	    108.91323091	     78.12056464
      4.76666670	     -7.33692946	     -0.49940031	      0.44616325	      0.92015367	      0.74376779	     -0.09253650	     52.17235189	    -17.51333817	     -1.81665520	     76.12116832	     34.08136589	      0.20440713	      0.00000000	     54.76182043	    -20.81276419	     -7.91242187	     77.33534021	     31.64869515	      3.19411610	      0.00000000	    -25.15313053	      0.53752851	      6.97745043	     96.11215431	     -1.05993772	     37.34893205	     93.15001535	     88.01818790	     76.26894799	    -18.37710931	     13.90216633	    113.35693803	     78.46115933
      4.78333330	     -7.40261270	     -0.43327442	      0.25342105	      0.91564690	      0.72906537	     -0.09264592	     54.57397503	    -18.34996266	     -1.51259019	     79.36539451	     35.40675824	      2.12902047	      0.00000000	     57.23155274	    -21.70693514	     -7.45926200	     80.60845587	     32.63476088	      4.39571724	      0.00000000	    -26.84199739	      0.13179749	      6.03207011	     94.44141489	     -0.99849066	     35.06690879	     98.68708970	     89.69102058	     76.58236023	    -18.88893967	     12.77503843	    117.41402249	     79.47475821
      4.80000000	     -7.24130318	     -0.49211545	      0.08372223	      0.91382480	      0.71841449	     -0.09394006	     56.04708716	    -19.07293241	     -1.40263028	     81.65657796	     36.73780136	      4.51431431	      0.00000000	     58.68002914	    -22.58316390	     -7.25344658	     82.99648579	     33.32872416	      5.47897107	      0.00000000	    -28.43797454	     -0.26315030	      5.80775151	     92.04223964	     -2.33068910	     33.89324986	    104.49320623	     96.47120635	     75.92253134	    -17.93203801	     12.46865526	    120.17445270	     84.14797331
      4.81666670	     -6.82841003	     -0.45648398	     -0.12346342	      0.91085344	      0.70793607	     -0.09414778	     56.90017278	    -19.69170722	     -1.13516163	     83.51500343	     37.62118632	      6.18216199	      0.00000000	     59.73632038	    -23.37661548	     -7.26049726	     85.08342286	     33.55708830	      5.98016657	      0.00000000	    -30.40933215	     -0.20497276	      5.18455954	     90.53485973	     -2.84793400	     34.65405545	    108.48794084	     96.78832328	     74.56011008	    -18.33778715	     12.16220887	    123.35604189	     84.46452586
